<?xml version="1.0" encoding="utf-8"?>
<!-- Generator: Adobe Illustrator 16.0.0, SVG Export Plug-In . SVG Version: 6.00 Build 0)  -->
<!DOCTYPE svg PUBLIC "-//W3C//DTD SVG 1.1//EN" "http://www.w3.org/Graphics/SVG/1.1/DTD/svg11.dtd">
<svg version="1.1" id="Vrstva_1" xmlns="http://www.w3.org/2000/svg" xmlns:xlink="http://www.w3.org/1999/xlink" x="0px" y="0px"
	 width="3648px" height="3648px" viewBox="0 0 3648 3648" enable-background="new 0 0 3648 3648" xml:space="preserve">
<rect width="3648" height="3648"/>
<path fill="#FFCC00" d="M3648,1055.15l-629.1,397.05c-90.392-75.169-221.858-89.312-328.65-25.775
	c-2.192,1.304-4.356,2.622-6.5,3.975c-254.509-202.1-617.47-237.389-913.35-61.35l182.925,307.45l-460.675,274.1
	c-36.359,21.632-52.955,60.411-37.15,86.975l31.4,52.775c15.805,26.564,57.816,30.507,94.175,8.875l460.675-274.1l287,482.4
	L1868.075,2581.6c-36.359,21.632-52.93,60.461-37.125,87.025l31.375,52.725c15.805,26.564,57.816,30.507,94.175,8.875l460.675-274.1
	L2594.4,2754c296.254-176.261,438.357-512.732,381.6-833.2c2.086-1.172,4.182-2.369,6.25-3.6
	c109.034-64.872,159.159-190.958,132.6-308.35l533.15-335.8V1055.15z"/>
<path fill="#FFCC00" d="M1080.35,1776.75c-295.88,176.039-438.056,511.877-381.875,831.975c-2.212,1.239-4.408,2.496-6.6,3.8
	C585.643,2675.729,535.35,2797.079,557.4,2911.85L0,3247.8v208.225l648.25-384.5c90.503,80.38,226.047,96.97,335.625,31.775
	c2.068-1.23,4.149-2.476,6.175-3.75c254.559,202.782,618.021,238.412,914.275,62.15
	C1566.713,2594.254,1689.156,2799.996,1080.35,1776.75z"/>
<path display="none" fill="#FFFFFF" d="M433.928,649.435c-0.093,92.109,11.646,156.098,35.217,191.969
	c23.571,35.87,59.536,53.022,107.894,51.456c14.3-0.069,29.328-1.746,45.086-5.03c15.758-3.285,29.889-7.765,42.395-13.441
	l-10.318-42.22c-9.926,5.333-22.039,9.51-36.338,12.534c-14.3,3.024-27.759,4.563-40.376,4.618
	c-26.198,0.647-47.277-4.166-63.239-14.44c-15.962-10.274-27.538-29.894-34.727-58.859c-7.189-28.965-10.723-71.16-10.601-126.586
	c-0.122-55.56,3.412-97.34,10.601-125.34c7.189-28,18.764-46.617,34.727-55.854c15.962-9.235,37.042-13.486,63.239-12.754
	c12.617,0.042,26.076,1.608,40.376,4.7c14.3,3.093,26.412,7.463,36.338,13.111l10.318-42.879
	c-12.505-5.36-26.637-9.647-42.395-12.864c-15.758-3.216-30.787-4.865-45.086-4.948c-48.358-1.883-84.323,14.087-107.894,47.91
	C445.574,494.34,433.835,557.313,433.928,649.435z"/>
<path display="none" fill="#FFFFFF" d="M845.571,892.859c48.713,1.814,84.64-14.678,107.781-49.477
	c23.141-34.798,34.618-98.788,34.432-191.969c0.159-91.916-11.375-155.135-34.6-189.659
	c-23.226-34.523-59.097-50.905-107.613-49.146c-48.302-1.759-84.042,14.623-107.22,49.146
	c-23.179,34.524-34.694,97.744-34.544,189.659c-0.178,93.181,11.281,157.17,34.375,191.969
	C761.276,878.181,797.073,894.673,845.571,892.859z M845.571,452.848c26.615-0.659,47.856,4.105,63.721,14.293
	c15.865,10.189,27.269,29.76,34.211,58.712c6.942,28.953,10.337,71.246,10.186,126.88c0.514,78.406-7.468,131.539-23.945,159.396
	c-16.478,27.858-44.535,40.914-84.173,39.169c-39.189,1.745-66.91-11.311-83.163-39.169s-24.123-80.99-23.609-159.396
	c-0.152-55.633,3.193-97.926,10.036-126.88c6.843-28.952,18.097-48.523,33.763-58.712
	C798.263,456.954,819.254,452.189,845.571,452.848z"/>
<path display="none" fill="#FFFFFF" d="M1094.006,471.979c30.132,68.484,59.143,137.339,87.033,206.564
	c27.889,69.226,54.208,137.586,78.957,205.08h38.582V423.822h-32.75v389.214c-24.786-66.065-50.695-132.17-77.724-198.318
	c-27.03-66.147-54.508-129.779-82.434-190.896h-43.965v459.801h32.301V471.979z"/>
<path display="none" fill="#FFFFFF" d="M1421.715,471.979c30.132,68.484,59.143,137.339,87.033,206.564
	c27.889,69.226,54.208,137.586,78.957,205.08h38.582V423.822h-32.75v389.214c-24.786-66.065-50.694-132.17-77.724-198.318
	c-27.03-66.147-54.508-129.779-82.434-190.896h-43.965v459.801h32.301V471.979z"/>
<polygon display="none" fill="#FFFFFF" points="1717.122,423.822 1717.122,883.623 1931.115,883.623 1931.115,844.042 
	1749.423,844.042 1749.423,657.351 1878.178,657.351 1878.178,617.77 1749.423,617.77 1749.423,463.403 1931.115,463.403 
	1931.115,423.822 "/>
<path display="none" fill="#FFFFFF" d="M1973.457,649.435c-0.094,92.109,11.646,156.098,35.217,191.969
	s59.536,53.022,107.894,51.456c14.3-0.069,29.328-1.746,45.086-5.03c15.757-3.285,29.889-7.765,42.395-13.441l-10.318-42.22
	c-9.926,5.333-22.039,9.51-36.339,12.534c-14.3,3.024-27.758,4.563-40.375,4.618c-26.198,0.647-47.277-4.166-63.239-14.44
	s-27.538-29.894-34.727-58.859s-10.723-71.16-10.601-126.586c-0.122-55.56,3.412-97.34,10.601-125.34
	c7.189-28,18.764-46.617,34.727-55.854c15.962-9.235,37.042-13.486,63.239-12.754c12.617,0.042,26.076,1.608,40.375,4.7
	c14.3,3.093,26.413,7.463,36.339,13.111l10.318-42.879c-12.506-5.36-26.638-9.647-42.395-12.864
	c-15.758-3.216-30.787-4.865-45.086-4.948c-48.358-1.883-84.322,14.087-107.894,47.91
	C1985.103,494.34,1973.363,557.313,1973.457,649.435z"/>
<polygon display="none" fill="#FFFFFF" points="2359.079,463.403 2467.197,463.403 2467.197,423.822 2217.763,423.822 
	2217.763,463.403 2326.33,463.403 2326.33,883.623 2359.079,883.623 "/>
<rect x="2515.364" y="423.822" display="none" fill="#FFFFFF" width="32.301" height="459.801"/>
<path display="none" fill="#FFFFFF" d="M2762.752,892.859c48.713,1.814,84.64-14.678,107.782-49.477
	c23.141-34.798,34.619-98.788,34.432-191.969c0.159-91.916-11.375-155.135-34.6-189.659
	c-23.226-34.523-59.097-50.905-107.613-49.146c-48.302-1.759-84.042,14.623-107.22,49.146
	c-23.179,34.524-34.694,97.744-34.544,189.659c-0.177,93.181,11.281,157.17,34.375,191.969
	C2678.458,878.181,2714.254,894.673,2762.752,892.859z M2762.752,452.848c26.615-0.659,47.856,4.105,63.721,14.293
	c15.865,10.189,27.269,29.76,34.211,58.712c6.942,28.953,10.338,71.246,10.186,126.88c0.514,78.406-7.468,131.539-23.945,159.396
	s-44.535,40.914-84.173,39.169c-39.188,1.745-66.91-11.311-83.163-39.169s-24.123-80.99-23.608-159.396
	c-0.152-55.633,3.192-97.926,10.036-126.88c6.843-28.952,18.097-48.523,33.763-58.712
	C2715.445,456.954,2736.436,452.189,2762.752,452.848z"/>
<path display="none" fill="#FFFFFF" d="M3011.188,471.979c30.132,68.484,59.143,137.339,87.033,206.564
	c27.889,69.226,54.208,137.586,78.958,205.08h38.582V423.822h-32.75v389.214c-24.787-66.065-50.695-132.17-77.724-198.318
	c-27.029-66.147-54.507-129.779-82.434-190.896h-43.965v459.801h32.301V471.979z"/>
<g display="none">
	<rect x="451.757" y="466.405" display="inline" fill="none" width="3011.398" height="492.904"/>
	<path display="inline" fill="#FFFFFF" stroke="#FFCC00" stroke-width="30" stroke-miterlimit="10" d="M811.761,406.398
		c7.8,0,12,4.2,12,12v456.005c0,7.8-4.2,12-12,12H755.96c-7.8,0-12-4.2-12-12V604.4h-4.2L680.36,875.603c-1.8,7.2-6,10.8-13.2,10.8
		h-29.4c-7.2,0-11.4-3.6-13.2-10.8L565.158,604.4h-4.2v270.003c0,7.8-4.2,12-12,12h-55.2c-7.8,0-12-4.2-12-12V418.398
		c0-7.8,4.2-12,12-12h79.201c7.2,0,11.4,3.6,13.2,10.8l66.601,298.803l66.601-298.803c1.8-7.2,6-10.8,13.2-10.8H811.761z"/>
	<path display="inline" fill="#FFFFFF" stroke="#FFCC00" stroke-width="30" stroke-miterlimit="10" d="M883.757,492.799
		c0-56.401,30-86.401,86.401-86.401h67.201c56.401,0,86.401,30,86.401,86.401v307.203c0,56.401-30,86.401-86.401,86.401h-67.201
		c-56.401,0-86.401-30-86.401-86.401V492.799z M1022.358,809.002c15.6,0,24-7.8,24-24V507.799c0-15.6-8.4-24-24-24h-34.801
		c-15.6,0-24,8.4-24,24v277.203c0,16.2,8.4,24,24,24H1022.358z"/>
	<path display="inline" fill="#FFFFFF" stroke="#FFCC00" stroke-width="30" stroke-miterlimit="10" d="M1430.359,406.398
		c6,0,9.6,3.6,9.6,9.6v460.805c0,6-3.6,9.6-9.6,9.6h-59.401c-5.4,0-9-2.4-10.8-7.8L1268.357,622.4h-3v254.403c0,6-3,9.6-9.6,9.6
		h-62.401c-6,0-9.6-3.6-9.6-9.6V415.998c0-6,3.6-9.6,9.6-9.6h59.401c5.4,0,9,2.4,10.8,7.8l91.201,255.003h3.6V415.998
		c0-6,3-9.6,9.6-9.6H1430.359z"/>
	<path display="inline" fill="#FFFFFF" stroke="#FFCC00" stroke-width="30" stroke-miterlimit="10" d="M1499.952,492.799
		c0-56.401,30-86.401,86.401-86.401h79.201c55.8,0,86.401,30,86.401,86.401v62.401c0,6-3.6,9.6-9.6,9.6h-60
		c-6.601,0-9.601-3.6-9.601-9.6v-45.6c0-15.6-8.4-24-24-24h-43.2c-16.2,0-24,8.4-24,24v273.603c0,16.2,8.4,24,24,24h43.2
		c15.6,0,24-7.8,24-24v-80.401h-31.2c-6.6,0-9.6-3.6-9.6-9.6V633.2c0-6.6,3-9.6,9.6-9.6h100.801c6,0,9.6,3,9.6,9.6v166.802
		c0,56.401-30.601,86.401-86.401,86.401h-79.201c-56.401,0-86.401-30-86.401-86.401V492.799z"/>
	<path display="inline" fill="#FFFFFF" stroke="#FFCC00" stroke-width="30" stroke-miterlimit="10" d="M2058.548,639.2
		c0,40.2-15,66.601-43.801,79.201l41.4,157.201c1.8,7.2-1.8,10.8-8.4,10.8h-62.401c-6,0-9-3-10.2-8.4l-40.201-152.402h-41.4v151.202
		c0,6-3.6,9.6-9.6,9.6h-62.4c-6,0-9.6-3.6-9.6-9.6V415.998c0-6,3.6-9.6,9.6-9.6h150.602c56.4,0,86.401,30,86.401,86.401V639.2z
		 M1952.947,646.4c15.6,0,24-8.4,24-24V509.599c0-15.6-8.4-24-24-24h-59.401V646.4H1952.947z"/>
	<path display="inline" fill="#FFFFFF" stroke="#FFCC00" stroke-width="30" stroke-miterlimit="10" d="M2357.94,475.999
		c0,6-2.4,10.2-9.6,10.2h-150.001V606.2h114.601c6,0,9.6,3.6,9.6,10.2v59.401c0,6.6-3.6,10.2-9.6,10.2h-114.601v121.201h150.001
		c7.2,0,9.6,3,9.6,9.6v60c0,6-2.4,9.6-9.6,9.6h-220.802c-5.4,0-9-3.6-9-9.6V415.998c0-6,3.6-9.6,9-9.6h220.802
		c7.2,0,9.6,3.6,9.6,9.6V475.999z"/>
	<path display="inline" fill="#FFFFFF" stroke="#FFCC00" stroke-width="30" stroke-miterlimit="10" d="M2553.536,406.398
		c56.4,0,86.401,30,86.401,86.401v63.601c0,6-3,9.6-9.6,9.6h-62.401c-6,0-9.6-3.6-9.6-9.6v-46.8c0-15.6-7.8-24-24-24h-28.8
		c-15,0-24,8.4-24,24V592.4l142.801,46.8c10.2,4.2,15.601,10.8,15.601,22.2v138.601c0,56.401-30,86.401-86.401,86.401h-67.201
		c-55.801,0-86.401-30-86.401-86.401v-63.001c0-6.6,3.6-9.6,9.6-9.6h62.4c6.6,0,9.6,3,9.6,9.6v46.2c0,16.2,9,24,24,24h28.8
		c15.6,0,24-7.8,24-24v-79.801l-142.201-46.8c-10.8-3.6-16.2-10.8-16.2-22.2V492.799c0-56.401,30.6-86.401,86.401-86.401H2553.536z"
		/>
	<path display="inline" fill="#FFFFFF" stroke="#FFCC00" stroke-width="30" stroke-miterlimit="10" d="M2906.342,406.398
		c6.6,0,9.6,3.6,9.6,9.6v60c0,6-3,9.6-9.6,9.6h-69.601v391.204c0,6.6-3,9.6-9.6,9.6h-62.4c-6,0-9.6-3-9.6-9.6V485.599h-69.601
		c-6,0-9.6-3.6-9.6-9.6v-60c0-6,3.6-9.6,9.6-9.6H2906.342z"/>
	<path display="inline" fill="#FFFFFF" stroke="#FFCC00" stroke-width="30" stroke-miterlimit="10" d="M2951.942,492.799
		c0-56.401,30-86.401,86.401-86.401h67.201c56.4,0,86.401,30,86.401,86.401v307.203c0,56.401-30,86.401-86.401,86.401h-67.201
		c-56.401,0-86.401-30-86.401-86.401V492.799z M3090.543,809.002c15.6,0,24-7.8,24-24V507.799c0-15.6-8.4-24-24-24h-34.8
		c-15.6,0-24,8.4-24,24v277.203c0,16.2,8.4,24,24,24H3090.543z"/>
</g>
<g>
	<path fill="#FFFFFF" stroke="#FFCC00" stroke-width="30" stroke-miterlimit="10" d="M811.761,406.398c7.8,0,12,4.2,12,12v456.005
		c0,7.8-4.2,12-12,12H755.96c-7.8,0-12-4.2-12-12V604.4h-4.2L680.36,875.603c-1.8,7.2-6,10.8-13.2,10.8h-29.4
		c-7.2,0-11.4-3.6-13.2-10.8L565.158,604.4h-4.2v270.003c0,7.8-4.2,12-12,12h-55.2c-7.8,0-12-4.2-12-12V418.398c0-7.8,4.2-12,12-12
		h79.201c7.2,0,11.4,3.6,13.2,10.8l66.601,298.803l66.601-298.803c1.8-7.2,6-10.8,13.2-10.8H811.761z"/>
	<path fill="#FFFFFF" stroke="#FFCC00" stroke-width="30" stroke-miterlimit="10" d="M883.757,492.799
		c0-56.401,30-86.401,86.401-86.401h67.201c56.401,0,86.401,30,86.401,86.401v307.203c0,56.401-30,86.401-86.401,86.401h-67.201
		c-56.401,0-86.401-30-86.401-86.401V492.799z M1022.358,809.002c15.6,0,24-7.8,24-24V507.799c0-15.6-8.4-24-24-24h-34.801
		c-15.6,0-24,8.4-24,24v277.203c0,16.2,8.4,24,24,24H1022.358z"/>
	<path fill="#FFFFFF" stroke="#FFCC00" stroke-width="30" stroke-miterlimit="10" d="M1430.359,406.398c6,0,9.6,3.6,9.6,9.6v460.805
		c0,6-3.6,9.6-9.6,9.6h-59.401c-5.4,0-9-2.4-10.8-7.8L1268.357,622.4h-3v254.403c0,6-3,9.6-9.6,9.6h-62.401c-6,0-9.6-3.6-9.6-9.6
		V415.998c0-6,3.6-9.6,9.6-9.6h59.401c5.4,0,9,2.4,10.8,7.8l91.201,255.003h3.6V415.998c0-6,3-9.6,9.6-9.6H1430.359z"/>
	<path fill="#FFFFFF" stroke="#FFCC00" stroke-width="30" stroke-miterlimit="10" d="M1499.952,492.799
		c0-56.401,30-86.401,86.401-86.401h79.201c55.8,0,86.401,30,86.401,86.401v62.401c0,6-3.6,9.6-9.6,9.6h-60
		c-6.601,0-9.601-3.6-9.601-9.6v-45.6c0-15.6-8.4-24-24-24h-43.2c-16.2,0-24,8.4-24,24v273.603c0,16.2,8.4,24,24,24h43.2
		c15.6,0,24-7.8,24-24v-80.401h-31.2c-6.6,0-9.6-3.6-9.6-9.6V633.2c0-6.6,3-9.6,9.6-9.6h100.801c6,0,9.6,3,9.6,9.6v166.802
		c0,56.401-30.601,86.401-86.401,86.401h-79.201c-56.401,0-86.401-30-86.401-86.401V492.799z"/>
	<path fill="#FFFFFF" stroke="#FFCC00" stroke-width="30" stroke-miterlimit="10" d="M2058.548,639.2
		c0,40.2-15,66.601-43.801,79.201l41.4,157.201c1.8,7.2-1.8,10.8-8.4,10.8h-62.401c-6,0-9-3-10.2-8.4l-40.201-152.402h-41.4v151.202
		c0,6-3.6,9.6-9.6,9.6h-62.4c-6,0-9.6-3.6-9.6-9.6V415.998c0-6,3.6-9.6,9.6-9.6h150.602c56.4,0,86.401,30,86.401,86.401V639.2z
		 M1952.947,646.4c15.6,0,24-8.4,24-24V509.599c0-15.6-8.4-24-24-24h-59.401V646.4H1952.947z"/>
	<path fill="#FFFFFF" stroke="#FFCC00" stroke-width="30" stroke-miterlimit="10" d="M2357.94,475.999c0,6-2.4,10.2-9.6,10.2
		h-150.001V606.2h114.601c6,0,9.6,3.6,9.6,10.2v59.401c0,6.6-3.6,10.2-9.6,10.2h-114.601v121.201h150.001c7.2,0,9.6,3,9.6,9.6v60
		c0,6-2.4,9.6-9.6,9.6h-220.802c-5.4,0-9-3.6-9-9.6V415.998c0-6,3.6-9.6,9-9.6h220.802c7.2,0,9.6,3.6,9.6,9.6V475.999z"/>
	<path fill="#FFFFFF" stroke="#FFCC00" stroke-width="30" stroke-miterlimit="10" d="M2553.536,406.398
		c56.4,0,86.401,30,86.401,86.401v63.601c0,6-3,9.6-9.6,9.6h-62.401c-6,0-9.6-3.6-9.6-9.6v-46.8c0-15.6-7.8-24-24-24h-28.8
		c-15,0-24,8.4-24,24V592.4l142.801,46.8c10.2,4.2,15.601,10.8,15.601,22.2v138.601c0,56.401-30,86.401-86.401,86.401h-67.201
		c-55.801,0-86.401-30-86.401-86.401v-63.001c0-6.6,3.6-9.6,9.6-9.6h62.4c6.6,0,9.6,3,9.6,9.6v46.2c0,16.2,9,24,24,24h28.8
		c15.6,0,24-7.8,24-24v-79.801l-142.201-46.8c-10.8-3.6-16.2-10.8-16.2-22.2V492.799c0-56.401,30.6-86.401,86.401-86.401H2553.536z"
		/>
	<path fill="#FFFFFF" stroke="#FFCC00" stroke-width="30" stroke-miterlimit="10" d="M2906.342,406.398c6.6,0,9.6,3.6,9.6,9.6v60
		c0,6-3,9.6-9.6,9.6h-69.601v391.204c0,6.6-3,9.6-9.6,9.6h-62.4c-6,0-9.6-3-9.6-9.6V485.599h-69.601c-6,0-9.6-3.6-9.6-9.6v-60
		c0-6,3.6-9.6,9.6-9.6H2906.342z"/>
	<path fill="#FFFFFF" stroke="#FFCC00" stroke-width="30" stroke-miterlimit="10" d="M2951.942,492.799
		c0-56.401,30-86.401,86.401-86.401h67.201c56.4,0,86.401,30,86.401,86.401v307.203c0,56.401-30,86.401-86.401,86.401h-67.201
		c-56.401,0-86.401-30-86.401-86.401V492.799z M3090.543,809.002c15.6,0,24-7.8,24-24V507.799c0-15.6-8.4-24-24-24h-34.8
		c-15.6,0-24,8.4-24,24v277.203c0,16.2,8.4,24,24,24H3090.543z"/>
</g>
</svg>
